<?xml version="1.0" encoding="UTF-8"?>
<svg id="Layer_1" data-name="Layer 1" xmlns="http://www.w3.org/2000/svg" viewBox="0 0 96.24 92">
  <defs>
    <style>
      .cls-1 {
        fill: #fbbc05;
      }

      .cls-1, .cls-2 {
        stroke-width: 0px;
      }

      .cls-2 {
        fill: #ea4335;
      }
    </style>
  </defs>
  <path class="cls-2" d="M46.53,47.18c0,12.77-9.99,22.18-22.25,22.18S2.03,59.95,2.03,47.18s9.99-22.18,22.25-22.18,22.25,9.32,22.25,22.18ZM36.79,47.18c0-7.98-5.79-13.44-12.51-13.44s-12.51,5.46-12.51,13.44,5.79,13.44,12.51,13.44,12.51-5.55,12.51-13.44Z"/>
  <path class="cls-1" d="M94.53,47.18c0,12.77-9.99,22.18-22.25,22.18s-22.25-9.41-22.25-22.18,9.99-22.18,22.25-22.18,22.25,9.32,22.25,22.18ZM84.79,47.18c0-7.98-5.79-13.44-12.51-13.44s-12.51,5.46-12.51,13.44,5.79,13.44,12.51,13.44,12.51-5.55,12.51-13.44Z"/>
</svg>