<?xml version="1.0" encoding="UTF-8"?>
<svg id="Layer_2" data-name="Layer 2" xmlns="http://www.w3.org/2000/svg" viewBox="0 0 352.08 433.49">
  <g id="Layer_1-2" data-name="Layer 1">
    <g>
      <path d="M137.73,86.7c-6.14,0-11.38,4.47-12.34,10.54l-20.51,130.04-18.84,119.5v.1s0-.1,0-.1l18.84-119.5c.96-6.07,6.19-10.54,12.33-10.54h60.08c60.47,0,111.79-44.12,121.16-103.89.7-4.46,1.1-8.96,1.18-13.48h0s0,0,0,0c-15.37-8.06-33.41-12.67-53.18-12.67h-108.73Z" style="fill: #001c64; stroke-width: 0px;"/>
      <path d="M299.65,99.37c-.08,4.44-.47,8.94-1.18,13.49-9.37,59.78-60.69,103.89-121.16,103.89h-60.08c-6.14,0-11.37,4.47-12.33,10.54l-18.84,119.5-11.83,74.97c-.87,5.54,2.91,10.73,8.45,11.6.52.08,1.05.12,1.57.12h65.22c6.15,0,11.38-4.47,12.34-10.54l17.18-108.95c.96-6.07,6.19-10.54,12.34-10.55h38.4c60.47,0,111.78-44.11,121.15-103.89,6.65-42.44-14.7-81.04-51.22-100.18h0Z" style="fill: #0070e0; stroke-width: 0px;"/>
      <path d="M63.64,0c-6.15,0-11.38,4.48-12.34,10.55L.13,335.06c-.87,5.54,2.91,10.73,8.44,11.61.52.08,1.05.12,1.58.12h75.89l18.84-119.5,20.51-130.04c.96-6.07,6.19-10.54,12.34-10.54h108.73c19.78,0,37.82,4.61,53.19,12.66C300.7,44.94,255.79,0,194.04,0H63.64Z" style="fill: #003087; stroke-width: 0px;"/>
    </g>
  </g>
</svg>