<?xml version="1.0" encoding="UTF-8"?>
<svg id="Layer_2" data-name="Layer 2" xmlns="http://www.w3.org/2000/svg" viewBox="0 0 772.88 208.14">
  <g id="Layer_1-2" data-name="Layer 1">
    <g>
      <path d="M30.55,0c-2.25,0-4.16,1.64-4.51,3.86L.05,168.72c-.36,2.3,1.21,4.46,3.51,4.83.22.03.43.05.65.05h30.83c2.24,0,4.15-1.64,4.51-3.85l7.63-48.41c.36-2.22,2.26-3.85,4.51-3.85h28.02c32.75,0,60.55-23.89,65.63-56.28C150.47,28.55,124.97.07,88.81,0H30.55ZM60.52,36.8h22.43c18.46,0,24.47,10.89,22.57,22.94-1.9,12.07-11.23,20.97-29.09,20.97h-22.83l6.92-43.91ZM208.06,48.02c-7.79.03-16.75,1.62-26.8,5.81-23.06,9.61-34.15,29.49-38.85,43.97,0,0-14.97,44.2,18.86,68.49,0,0,31.37,23.37,66.69-1.45l-.61,3.88c-.36,2.3,1.21,4.46,3.51,4.83.22.03.43.05.65.05h29.27c2.24,0,4.15-1.64,4.5-3.86l17.81-112.9c.36-2.3-1.21-4.46-3.51-4.83-.22-.03-.43-.05-.65-.05h-29.27c-2.25,0-4.16,1.64-4.51,3.85l-.95,6.07h0s-12.78-13.96-36.14-13.87h0ZM209.02,83.68c3.36,0,6.43.46,9.19,1.35,12.62,4.06,19.79,16.18,17.72,29.33-2.56,16.2-15.83,28.12-32.86,28.12-3.36,0-6.44-.46-9.2-1.35-12.62-4.06-19.83-16.19-17.75-29.34,2.56-16.19,15.88-28.12,32.91-28.12h0Z" style="fill: #003087; stroke-width: 0px;"/>
      <path d="M452.02,0c-2.24,0-4.15,1.64-4.5,3.86l-26,164.86c-.36,2.3,1.21,4.46,3.51,4.83.22.03.44.05.66.05h30.83c2.24,0,4.15-1.63,4.5-3.85l7.64-48.41c.36-2.22,2.26-3.85,4.51-3.85h28.02c32.75,0,60.55-23.89,65.63-56.28C571.94,28.55,546.43.07,510.27,0h-58.26ZM481.99,36.8h22.43c18.46,0,24.48,10.89,22.58,22.94-1.9,12.07-11.23,20.97-29.1,20.97h-22.83l6.92-43.91ZM629.53,48.02c-7.79.03-16.75,1.62-26.8,5.81-23.06,9.61-34.15,29.49-38.85,43.97,0,0-14.97,44.2,18.86,68.49,0,0,31.37,23.37,66.69-1.45l-.61,3.88c-.36,2.3,1.21,4.46,3.51,4.83.22.03.44.05.66.05h29.26c2.25,0,4.16-1.64,4.51-3.86l17.81-112.9c.36-2.3-1.21-4.46-3.51-4.83-.22-.03-.44-.05-.66-.05h-29.26c-2.25,0-4.16,1.64-4.51,3.85l-.96,6.07s-12.78-13.96-36.14-13.87h0ZM630.48,83.68c3.36,0,6.44.46,9.2,1.35,12.62,4.06,19.78,16.18,17.71,29.33-2.56,16.2-15.83,28.12-32.86,28.12-3.36,0-6.43-.46-9.19-1.35-12.62-4.06-19.83-16.19-17.75-29.34,2.55-16.19,15.87-28.12,32.9-28.12h0Z" style="fill: #0070e0; stroke-width: 0px;"/>
      <path d="M296.98,51.96c-1.89,0-3.42,1.52-3.42,3.41,0,.36.06.72.17,1.06l32.08,99.57-29.01,46.93c-1.4,2.28.23,5.21,2.91,5.21h34.28c2,0,3.85-1.04,4.88-2.75l89.6-148.25c1.38-2.28-.26-5.19-2.92-5.19h-34.28c-2.01,0-3.88,1.06-4.91,2.79l-35.27,59.56-17.91-59.11c-.59-1.92-2.36-3.24-4.37-3.24h-31.83Z" style="fill: #003087; stroke-width: 0px;"/>
      <path d="M737.82,0c-2.24,0-4.15,1.64-4.5,3.86l-26,164.86c-.36,2.3,1.21,4.46,3.51,4.83.22.03.44.05.66.05h30.83c2.24,0,4.15-1.63,4.5-3.85l26.01-164.87c.36-2.3-1.21-4.46-3.51-4.83-.22-.03-.44-.05-.66-.05h-30.83Z" style="fill: #0070e0; stroke-width: 0px;"/>
    </g>
  </g>
</svg>